<svg width="25" height="26" viewBox="0 0 25 26" fill="none" xmlns="http://www.w3.org/2000/svg">
<path fill-rule="evenodd" clip-rule="evenodd" d="M25 13C25 19.9036 19.4036 25.5 12.5 25.5C5.59644 25.5 0 19.9036 0 13C0 6.09644 5.59644 0.5 12.5 0.5C19.4036 0.5 25 6.09644 25 13ZM12.9479 9.72805C11.7321 10.2338 9.30219 11.2804 5.65819 12.8681C5.06646 13.1034 4.75648 13.3336 4.72826 13.5587C4.68057 13.9391 5.15696 14.0889 5.80567 14.2928C5.89391 14.3206 5.98533 14.3493 6.07907 14.3798C6.71729 14.5873 7.57582 14.83 8.02214 14.8396C8.42699 14.8484 8.87885 14.6815 9.37771 14.3389C12.7824 12.0406 14.5399 10.879 14.6503 10.8539C14.7281 10.8363 14.836 10.814 14.9091 10.879C14.9822 10.944 14.975 11.067 14.9673 11.1C14.9201 11.3012 13.0501 13.0397 12.0824 13.9394C11.7807 14.2198 11.5667 14.4188 11.523 14.4642C11.425 14.566 11.3251 14.6623 11.2291 14.7548C10.6362 15.3264 10.1915 15.755 11.2537 16.455C11.7642 16.7914 12.1726 17.0695 12.5801 17.347C13.0251 17.6501 13.469 17.9524 14.0433 18.3288C14.1896 18.4247 14.3294 18.5244 14.4655 18.6214C14.9834 18.9906 15.4487 19.3223 16.0235 19.2694C16.3575 19.2387 16.7025 18.9246 16.8778 17.9879C17.2919 15.7741 18.1058 10.9776 18.2939 9.00102C18.3104 8.82785 18.2897 8.60622 18.273 8.50893C18.2564 8.41165 18.2216 8.27303 18.0951 8.17042C17.9454 8.04889 17.7142 8.02327 17.6108 8.02509C17.1406 8.03337 16.4193 8.28419 12.9479 9.72805Z" fill="#060000"/>
</svg>
