<svg width="25" height="26" viewBox="0 0 25 26" fill="none" xmlns="http://www.w3.org/2000/svg">
<path fill-rule="evenodd" clip-rule="evenodd" d="M1.75736 2.25736C0 4.01472 0 6.84315 0 12.5V13.5C0 19.1568 0 21.9853 1.75736 23.7426C3.51472 25.5 6.34315 25.5 12 25.5H13C18.6568 25.5 21.4853 25.5 23.2426 23.7426C25 21.9853 25 19.1568 25 13.5V12.5C25 6.84315 25 4.01472 23.2426 2.25736C21.4853 0.5 18.6568 0.5 13 0.5H12C6.34315 0.5 3.51472 0.5 1.75736 2.25736ZM4.2188 8.10423C4.3542 14.6042 7.60418 18.5105 13.3021 18.5105H13.6251V14.7917C15.7188 15 17.302 16.5313 17.9375 18.5105H20.8959C20.0834 15.5521 17.9478 13.9167 16.6145 13.2917C17.9478 12.5209 19.8229 10.6459 20.2708 8.10423H17.5832C16.9999 10.1667 15.2709 12.0417 13.6251 12.2188V8.10423H10.9375V15.3125C9.27083 14.8959 7.1667 12.875 7.07295 8.10423H4.2188Z" fill="black"/>
</svg>
